<?xml version="1.0" encoding="UTF-8" standalone="no"?>
<!DOCTYPE svg PUBLIC "-//W3C//DTD SVG 1.1//EN"
 "http://www.w3.org/Graphics/SVG/1.1/DTD/svg11.dtd">
<!-- Generated by graphviz version 2.44.1 (20200629.0846)
 -->
<!-- Title: Database Structure Pages: 1 -->
<svg width="179pt" height="102pt"
 viewBox="0.00 0.00 179.00 102.00" xmlns="http://www.w3.org/2000/svg" xmlns:xlink="http://www.w3.org/1999/xlink">
<g id="graph0" class="graph" transform="scale(1 1) rotate(0) translate(4 98)">
<title>Database Structure</title>
<polygon fill="white" stroke="transparent" points="-4,4 -4,-98 175,-98 175,4 -4,4"/>
<text text-anchor="middle" x="85.5" y="-78.8" font-family="Helvetica,sans-Serif" font-size="14.00">ER Diagram: TODO&#45;LIST</text>
<!-- task -->
<g id="node1" class="node">
<title>task</title>
<polygon fill="#dddddd" stroke="transparent" points="36.5,-45.5 36.5,-66.5 135.5,-66.5 135.5,-45.5 36.5,-45.5"/>
<polygon fill="none" stroke="black" points="36.5,-45.5 36.5,-66.5 135.5,-66.5 135.5,-45.5 36.5,-45.5"/>
<text text-anchor="start" x="75" y="-52.3" font-family="Times,serif" font-size="14.00">task</text>
<polygon fill="none" stroke="black" points="36.5,-24.5 36.5,-45.5 135.5,-45.5 135.5,-24.5 36.5,-24.5"/>
<text text-anchor="start" x="70" y="-32.3" font-family="Times,serif" font-size="14.00">id:</text>
<text text-anchor="start" x="85" y="-32.3" font-family="Helvetica,sans-Serif" font-style="oblique" font-size="10.00">INT</text>
<polygon fill="none" stroke="black" points="36.5,-3.5 36.5,-24.5 135.5,-24.5 135.5,-3.5 36.5,-3.5"/>
<text text-anchor="start" x="39.5" y="-11.3" font-family="Times,serif" font-size="14.00">content:</text>
<text text-anchor="start" x="83.5" y="-11.3" font-family="Helvetica,sans-Serif" font-style="oblique" font-size="10.00">VARCHAR</text>
</g>
</g>
</svg>
